# xmcd
#
# Track frame offsets:
#	150
#	20483
#	33281
#	53097
#	71215
#	87453
#	114804
#	133423
#	159076
#	184414
#	199124
#	228628
#	248550
#	269442
#	290142
#
# Disc length: 4179 seconds
#
# Revision: 0
# Processed by: cddbd v1.4PL0 Copyright (c) Steve Scherf et al.
# Submitted via: dBpowerAMP V4.0
#
DISCID=db10510f
DTITLE=The Band - Live At Loreley
DYEAR=1996
DGENRE=Country
TTITLE0=Back To Memphis
TTITLE1=Stuff You Gotta Watch
TTITLE2=Stagefright
TTITLE3=Remedy
TTITLE4=Ophelia
TTITLE5=Makes No Difference
TTITLE6=Rag Mama Rag
TTITLE7=Crazy Mama
TTITLE8=The Weight
TTITLE9=Testify
TTITLE10=Jam
TTITLE11=Free Your Mind
TTITLE12=The Shape I'm In
TTITLE13=Rock 'n' Roll Shoes
TTITLE14=Chest Fever
EXTD=
EXTT0=
EXTT1=
EXTT2=
EXTT3=
EXTT4=
EXTT5=
EXTT6=
EXTT7=
EXTT8=
EXTT9=
EXTT10=
EXTT11=
EXTT12=
EXTT13=
EXTT14=
PLAYORDER=
